<svg xmlns="http://www.w3.org/2000/svg" viewBox="0 0 48 48" width="48px" height="48px"><path fill="#4285F4" d="M24 9.5c3.13 0 5.9 1.12 7.96 3.04l6.52-6.52C34.63 2.25 29.63 0 24 0 14.52 0 6.44 5.53 2.63 13.62l7.96 6.19C12.23 13.99 17.68 9.5 24 9.5z"/><path fill="#34A853" d="M46.38 24.5c0-1.69-.15-3.32-.42-4.88H24v9.19h12.54c-.54 2.97-2.18 5.49-4.66 7.2l7.96 6.19C42.91 38.01 46.38 31.88 46.38 24.5z"/><path fill="#FBBC05" d="M10.59 28.81c-.54-1.62-.84-3.35-.84-5.12s.3-3.5.84-5.12L2.63 13.62C.95 16.96 0 20.38 0 24c0 3.62.95 7.04 2.63 10.38l7.96-6.57z"/><path fill="#EA4335" d="M24 48c5.63 0 10.63-1.88 14.19-5.04l-7.96-6.19c-1.88 1.27-4.28 2.02-6.23 2.02-6.32 0-11.77-4.49-13.41-10.59L2.63 34.38C6.44 42.47 14.52 48 24 48z"/><path fill="none" d="M0 0h48v48z"/></svg>